HIERARCHY
ROOT Hips
{
    OFFSET 0.000000 0.000000 0.000000
    CHANNELS 6 Xposition Yposition Zposition Zrotation Xrotation Yrotation
    JOINT Spine
    {
        OFFSET -0.000000 14.517291 0.000000
        CHANNELS 3 Zrotation Xrotation Yrotation
        JOINT Spine1
        {
            OFFSET -0.000000 37.558300 0.000000
            CHANNELS 3 Zrotation Xrotation Yrotation
            JOINT Neck
            {
                OFFSET -0.000000 37.404057 3.400369
                CHANNELS 3 Zrotation Xrotation Yrotation
                JOINT Head
                {
                    OFFSET -0.000000 24.785618 -3.540803
                    CHANNELS 3 Zrotation Xrotation Yrotation
                    End Site
                    {
                        OFFSET -0.000000 35.408028 0.000000
                    }
                }
            }
            JOINT LeftShoulder
            {
                OFFSET 6.992933 33.973492 -0.192664
                CHANNELS 3 Zrotation Xrotation Yrotation
                JOINT LeftArm
                {
                    OFFSET 21.527611 0.000000 0.000000
                    CHANNELS 3 Zrotation Xrotation Yrotation
                    JOINT LeftForeArm
                    {
                        OFFSET 56.353916 0.000000 0.000000
                        CHANNELS 3 Zrotation Xrotation Yrotation
                        JOINT LeftHand
                        {
                            OFFSET 47.774071 0.000000 0.000000
                            CHANNELS 3 Zrotation Xrotation Yrotation
                            End Site
                            {
                                OFFSET 26.556021 0.000000 0.000000
                            }
                        }
                    }
                }
            }
            JOINT RightShoulder
            {
                OFFSET -7.065357 33.973492 -0.192664
                CHANNELS 3 Zrotation Xrotation Yrotation
                JOINT RightArm
                {
                    OFFSET -21.527611 0.000000 0.000000
                    CHANNELS 3 Zrotation Xrotation Yrotation
                    JOINT RightForeArm
                    {
                        OFFSET -56.353916 0.000000 0.000000
                        CHANNELS 3 Zrotation Xrotation Yrotation
                        JOINT RightHand
                        {
                            OFFSET -47.774071 0.000000 0.000000
                            CHANNELS 3 Zrotation Xrotation Yrotation
                            End Site
                            {
                                OFFSET -26.556021 0.000000 0.000000
                            }
                        }
                    }
                }
            }
        }
    }
    JOINT LeftUpLeg
    {
        OFFSET 17.704014 0.000000 0.000000
        CHANNELS 3 Zrotation Xrotation Yrotation
        JOINT LeftLeg
        {
            OFFSET -0.000000 -81.181816 0.000000
            CHANNELS 3 Zrotation Xrotation Yrotation
            JOINT LeftFoot
            {
                OFFSET -0.000000 -62.821102 0.000000
                CHANNELS 3 Zrotation Xrotation Yrotation
                JOINT LeftToeBase
                {
                    OFFSET -0.000000 -11.507608 26.556021
                    CHANNELS 3 Zrotation Xrotation Yrotation
                    End Site
                    {
                        OFFSET -0.000000 0.000000 7.081605
                    }
                }
            }
        }
    }
    JOINT RightUpLeg
    {
        OFFSET -17.704014 0.000000 0.000000
        CHANNELS 3 Zrotation Xrotation Yrotation
        JOINT RightLeg
        {
            OFFSET -0.000000 -81.181816 0.000000
            CHANNELS 3 Zrotation Xrotation Yrotation
            JOINT RightFoot
            {
                OFFSET -0.000000 -62.821102 0.000000
                CHANNELS 3 Zrotation Xrotation Yrotation
                JOINT RightToeBase
                {
                    OFFSET -0.000000 -11.507608 26.556021
                    CHANNELS 3 Zrotation Xrotation Yrotation
                    End Site
                    {
                        OFFSET -0.000000 0.000000 7.081605
                    }
                }
            }
        }
    }
}
MOTION
Frames:    8
Frame Time:    0.008333
-25.005520    152.761719    -31.636444    0.221064    2.197624    17.825428    -0.674843    4.387465    11.790693    -2.775305    -0.311110    3.916323    -4.143008    0.920075    -14.210630    12.736164    -2.822997    -12.119931    0.248423    3.066148    -8.987165    -35.797066    20.068203    -54.399033    -6.211321    -21.688532    -129.062302    -1.643818    -33.199028    -7.393026    -3.875630    10.201460    8.195451    40.786255    11.422623    79.520081    -65.882744    -33.429825    11.008053    29.911560    -20.070284    28.717306    -0.813414    -33.071163    -27.543386    -11.922907    24.734108    -22.543983    -8.283484    -1.579247    33.849426    0.000000    0.000000    0.000000    0.319218    7.904391    -20.420370    3.051664    25.523470    -4.593172    0.779890    -30.570724    -9.916765    0.000000    0.000000    0.000000    
-25.020372    152.759232    -31.625605    0.222937    2.194750    17.847311    -0.672456    4.397620    11.790586    -2.766969    -0.323808    3.916020    -4.149046    0.921409    -14.212873    12.755672    -2.812401    -12.119423    0.244772    3.072333    -8.981567    -35.798752    20.081097    -54.382790    -6.210910    -21.661442    -129.072647    -1.640222    -33.176910    -7.379990    -3.867814    10.216692    8.193263    40.778500    11.415826    79.526543    -65.914795    -33.406628    10.943102    29.903933    -20.064486    28.782999    -0.819351    -33.068485    -27.545135    -11.915763    24.735287    -22.563025    -8.275018    -1.566801    33.838482    0.000000    0.000000    0.000000    0.328254    7.913880    -20.439529    3.052746    25.514843    -4.613995    0.794119    -30.557573    -9.891705    0.000000    0.000000    0.000000    
-25.034773    152.758957    -31.616247    0.226275    2.194853    17.861315    -0.671654    4.410353    11.804219    -2.766672    -0.338841    3.920196    -4.142857    0.918599    -14.215966    12.765090    -2.810343    -12.122123    0.252059    3.081899    -8.981071    -35.800167    20.081734    -54.377159    -6.220745    -21.625851    -129.079437    -1.644415    -33.163948    -7.372023    -3.855597    10.335889    8.221873    40.734062    11.334805    79.576561    -66.022881    -33.410919    10.848799    29.923273    -20.091982    28.845100    -0.826270    -33.069221    -27.535427    -11.909275    24.746862    -22.573944    -8.261336    -1.559353    33.831043    0.000000    0.000000    0.000000    0.335448    7.917259    -20.450081    3.045498    25.512606    -4.596637    0.828253    -30.553026    -9.911016    0.000000    0.000000    0.000000    
-25.052303    152.757431    -31.605249    0.228337    2.196911    17.879492    -0.673290    4.413110    11.808774    -2.754402    -0.347408    3.921519    -4.132990    0.923228    -14.205887    12.748369    -2.818099    -12.115038    0.245502    3.088044    -8.974275    -35.785458    20.086510    -54.362518    -6.228218    -21.614954    -129.087891    -1.676847    -33.167332    -7.406868    -3.860565    10.335724    8.224648    40.729370    11.335447    79.569916    -66.046730    -33.418533    10.790726    29.911644    -20.118885    28.910465    -0.830200    -33.071709    -27.560101    -11.923460    24.744915    -22.538895    -8.255217    -1.551113    33.809895    0.000000    0.000000    0.000000    0.343105    7.926066    -20.468708    3.048132    25.495087    -4.617124    0.839700    -30.544586    -9.887235    0.000000    0.000000    0.000000    
-25.070419    152.757370    -31.592962    0.228479    2.193316    17.897873    -0.664084    4.417356    11.811191    -2.758263    -0.342353    3.922557    -4.095190    0.925153    -14.196719    12.702311    -2.848036    -12.115172    0.250709    3.090415    -8.957450    -35.779350    20.080078    -54.358559    -6.225941    -21.600224    -129.087418    -1.689602    -33.148945    -7.418014    -3.855359    10.338398    8.221975    40.751213    11.319233    79.571487    -66.036011    -33.443485    10.769286    29.896557    -20.148449    28.974091    -0.834193    -33.067677    -27.566462    -11.912343    24.750139    -22.566963    -8.255950    -1.552160    33.816608    0.000000    0.000000    0.000000    0.357632    7.941328    -20.489229    3.042507    25.476944    -4.589693    0.841753    -30.540327    -9.908434    0.000000    0.000000    0.000000    
-25.092264    152.757263    -31.580963    0.232171    2.195955    17.915079    -0.671773    4.424584    11.817259    -2.745081    -0.354174    3.924225    -4.075954    0.935311    -14.194380    12.663443    -2.880004    -12.118743    0.242705    3.091578    -8.944485    -35.762371    20.088911    -54.351414    -6.226574    -21.612133    -129.089706    -1.694170    -33.160938    -7.428065    -3.857495    10.363629    8.209740    40.813766    11.249708    79.572289    -65.932335    -33.448277    10.828122    29.864965    -20.134188    28.991613    -0.833907    -33.064808    -27.587982    -11.925244    24.734642    -22.557507    -8.244321    -1.543665    33.822781    0.000000    0.000000    0.000000    0.368028    7.953218    -20.495802    3.047094    25.450497    -4.620698    0.871978    -30.532644    -9.882295    0.000000    0.000000    0.000000    
-25.114187    152.758606    -31.562376    0.236260    2.195581    17.935358    -0.688244    4.420569    11.826574    -2.716690    -0.352075    3.927258    -4.039085    0.957943    -14.194108    12.593048    -2.937597    -12.129887    0.234709    3.097079    -8.954195    -35.769726    20.072552    -54.329159    -6.232422    -21.603769    -129.094299    -1.688918    -33.165745    -7.416171    -3.855948    10.383176    8.197209    40.804249    11.235058    79.584663    -65.956139    -33.447426    10.772338    29.862675    -20.145121    29.066364    -0.845551    -33.058109    -27.606905    -11.916112    24.735023    -22.545528    -8.250203    -1.543912    33.816822    0.000000    0.000000    0.000000    0.379697    7.975013    -20.522886    3.043949    25.414507    -4.619516    0.894838    -30.520166    -9.864430    0.000000    0.000000    0.000000    
-25.135395    152.760132    -31.551111    0.241244    2.199486    17.953152    -0.694243    4.417717    11.834645    -2.698406    -0.344846    3.930117    -4.045618    0.975573    -14.192560    12.575368    -2.988729    -12.125390    0.220046    3.088325    -8.958051    -35.757118    20.074877    -54.307304    -6.220126    -21.639120    -129.088547    -1.698599    -33.173401    -7.428359    -3.864603    10.399837    8.187143    40.817215    11.212073    79.608047    -65.974823    -33.417389    10.723821    29.842896    -20.131237    29.114429    -0.850106    -33.055088    -27.623480    -11.909233    24.718742    -22.573109    -8.255759    -1.535476    33.826145    0.000000    0.000000    0.000000    0.386981    7.982860    -20.547001    3.033923    25.396391    -4.620336    0.921930    -30.509192    -9.839702    0.000000    0.000000    0.000000    
